<svg width="24" height="24" viewBox="0 0 24 24" fill="none" xmlns="http://www.w3.org/2000/svg">
    <path d="M3.03678 5.14871C6.23655 5.13082 9.1145 4.28103 11.4684 2C13.813 4.26314 16.7002 5.13082 19.9735 5.13977C19.9735 5.77488 19.9551 6.36526 19.9735 6.95565C20.0287 9.01304 20.0287 11.0704 19.6609 13.101C19.008 16.7238 17.0772 19.4521 13.6659 21.1249C13.0407 21.429 12.3786 21.6884 11.735 21.9478C11.6063 22.0015 11.4316 22.0194 11.3029 21.9747C8.47087 21.0086 6.09863 19.461 4.59989 16.849C3.73558 15.3552 3.23906 13.7093 3.13792 12.0007C3.00919 9.79128 3.03678 7.57287 3 5.35445C3 5.29184 3.01839 5.23817 3.03678 5.14871Z" fill="#F1605D"/>
    <path d="M8.0918 16V8H9.7832V11.3008H13.2168V8H14.9043V16H13.2168V12.6953H9.7832V16H8.0918Z" fill="white"/>
</svg>
