<svg width="24" height="24" viewBox="0 0 24 24" fill="none" xmlns="http://www.w3.org/2000/svg">
    <path fill-rule="evenodd" clip-rule="evenodd" d="M4.89474 5.84211C4.89474 5.31889 5.31889 4.89474 5.84211 4.89474H12V3H5.84211C4.27245 3 3 4.27245 3 5.84211V18.1579C3 19.7275 4.27245 21 5.84211 21H18.1579C19.7275 21 21 19.7275 21 18.1579V12H19.1053V18.1579C19.1053 18.6811 18.6811 19.1053 18.1579 19.1053H5.84211C5.31889 19.1053 4.89474 18.6811 4.89474 18.1579V5.84211ZM14 5H17.5858L10.2929 12.2929L11.7071 13.7071L19 6.41421V10H21V4V3H20H14V5Z" fill="#95939B"/>
</svg>
